# xmcd
#
# Track frame offsets:
#	150
#	20734
#	40757
#	55303
#	72731
#	86485
#	101380
#	116509
#	130775
#	143437
#	152972
#	173421
#	191997
#	208353
#
# Disc length: 2957 seconds
#
# Revision: 1
# Processed by: cddbd v1.4PL0 Copyright (c) Steve Scherf et al.
# Submitted via: CDmax 1.9
#
DISCID=c70b8b0e
DTITLE=Ernest Tubb - The Complete Live 1965 Show, CD #1
DYEAR=1998
DGENRE=Country
TTITLE0=Intro/Drivin' Nails in My Coffin 
TTITLE1=I Love You Because 
TTITLE2=There's a Little Bit of Everything in Texas
TTITLE3=Blue Eyed Elaine 
TTITLE4=Slipping Around 
TTITLE5=Mississippi Gal 
TTITLE6=I'll Take a Back Seat for You 
TTITLE7=Pass the Booze 
TTITLE8=Warm Red Wine 
TTITLE9=C Jam Blues 
TTITLE10=Born to Lose 
TTITLE11=I Couldn't Care Less 
TTITLE12=Seaman's Blues 
TTITLE13=Walking the Floor over You 
EXTD=
EXTT0=
EXTT1=
EXTT2=
EXTT3=
EXTT4=
EXTT5=
EXTT6=
EXTT7=
EXTT8=
EXTT9=
EXTT10=
EXTT11=
EXTT12=
EXTT13=
PLAYORDER=
